<svg width="125" height="128" viewBox="0 0 125 128" fill="none" xmlns="http://www.w3.org/2000/svg">
<path d="M80.0346 51.0871C78.4454 51.7772 76.7314 52.1333 74.9989 52.1333C73.2663 52.1333 71.5523 51.7772 69.9631 51.0871L8.89171 22.8014C7.90001 22.3012 7.06661 21.5356 6.48434 20.5897C5.90206 19.6439 5.59375 18.555 5.59375 17.4443C5.59375 16.3336 5.90206 15.2447 6.48434 14.2988C7.06661 13.353 7.90001 12.5873 8.89171 12.0871L69.9631 -16.4128C71.5523 -17.1029 73.2663 -17.459 74.9989 -17.459C76.7314 -17.459 78.4454 -17.1029 80.0346 -16.4128L141.106 11.8728C142.098 12.373 142.931 13.1387 143.513 14.0845C144.096 15.0304 144.404 16.1193 144.404 17.23C144.404 18.3407 144.096 19.4296 143.513 20.3754C142.931 21.3213 142.098 22.0869 141.106 22.5871L80.0346 51.0871Z" stroke="#FF9900" stroke-width="2" stroke-linecap="round" stroke-linejoin="round"/>
<path d="M144.645 55.9082L79.2879 86.0151C77.8921 86.6521 76.3757 86.9811 74.8415 86.9811C73.3073 86.9811 71.791 86.6521 70.3951 86.0151L5.35938 55.9082" stroke="#FF9900" stroke-width="2" stroke-linecap="round" stroke-linejoin="round"/>
<path d="M144.645 90.7285L79.2879 120.837C77.8921 121.473 76.3757 121.803 74.8415 121.803C73.3073 121.803 71.791 121.473 70.3951 120.837L5.35938 90.7285" stroke="#FF9900" stroke-width="2" stroke-linecap="round" stroke-linejoin="round"/>
</svg>
