<svg width="125" height="128" viewBox="0 0 125 128" fill="none" xmlns="http://www.w3.org/2000/svg">
<path d="M34.8237 41.4461C51.0963 41.4461 64.2879 28.2545 64.2879 11.9818C64.2879 -4.29086 51.0963 -17.4824 34.8237 -17.4824C18.551 -17.4824 5.35938 -4.29086 5.35938 11.9818C5.35938 28.2545 18.551 41.4461 34.8237 41.4461Z" stroke="#FF9900" stroke-width="2" stroke-linecap="round" stroke-linejoin="round"/>
<path d="M115.183 41.4461C131.456 41.4461 144.647 28.2545 144.647 11.9818C144.647 -4.29086 131.456 -17.4824 115.183 -17.4824C98.9103 -17.4824 85.7188 -4.29086 85.7188 11.9818C85.7188 28.2545 98.9103 41.4461 115.183 41.4461Z" stroke="#FF9900" stroke-width="2" stroke-linecap="round" stroke-linejoin="round"/>
<path d="M34.8237 121.805C51.0963 121.805 64.2879 108.614 64.2879 92.3412C64.2879 76.0686 51.0963 62.877 34.8237 62.877C18.551 62.877 5.35938 76.0686 5.35938 92.3412C5.35938 108.614 18.551 121.805 34.8237 121.805Z" stroke="#FF9900" stroke-width="2" stroke-linecap="round" stroke-linejoin="round"/>
<path d="M115.183 121.805C131.456 121.805 144.647 108.614 144.647 92.3412C144.647 76.0686 131.456 62.877 115.183 62.877C98.9103 62.877 85.7188 76.0686 85.7188 92.3412C85.7188 108.614 98.9103 121.805 115.183 121.805Z" stroke="#FF9900" stroke-width="2" stroke-linecap="round" stroke-linejoin="round"/>
</svg>
