<svg width="103" height="118" viewBox="0 0 103 118" fill="none" xmlns="http://www.w3.org/2000/svg">
<path d="M45.9779 -3.93753L50.585 -15.8303C51.362 -17.844 52.729 -19.576 54.507 -20.7995C56.285 -22.0231 58.391 -22.6811 60.5493 -22.6875H69.335C71.4933 -22.6811 73.5994 -22.0231 75.3774 -20.7995C77.1553 -19.576 78.5223 -17.844 79.2993 -15.8303L83.9065 -3.93753L99.5493 5.06247L112.192 3.13397C114.297 2.84817 116.44 3.19477 118.347 4.12957C120.255 5.06437 121.842 6.54517 122.906 8.38397L127.192 15.884C128.29 17.752 128.796 19.9091 128.643 22.0706C128.49 24.2321 127.685 26.2964 126.335 27.9911L118.513 37.9554V55.9554L126.549 65.9197C127.899 67.6144 128.704 69.6787 128.857 71.8402C129.01 74.0017 128.504 76.1586 127.406 78.0266L123.12 85.5266C122.056 87.3656 120.469 88.8466 118.562 89.7816C116.654 90.7156 114.511 91.0626 112.406 90.7766L99.7636 88.8486L84.1208 97.8486L79.5136 109.742C78.7366 111.755 77.3696 113.487 75.5917 114.711C73.8137 115.934 71.7076 116.592 69.5493 116.599H60.5493C58.391 116.592 56.285 115.934 54.507 114.711C52.729 113.487 51.362 111.755 50.585 109.742L45.9779 97.8486L30.335 88.8486L17.6922 90.7766C15.587 91.0626 13.4444 90.7156 11.5366 89.7816C9.62888 88.8466 8.04209 87.3656 6.97791 85.5266L2.69219 78.0266C1.59399 76.1586 1.08802 74.0017 1.24105 71.8402C1.39407 69.6787 2.19891 67.6144 3.54933 65.9197L11.3708 55.9554V37.9554L3.33505 27.9911C1.98462 26.2964 1.17979 24.2321 1.02676 22.0706C0.873729 19.9091 1.37971 17.752 2.4779 15.884L6.76362 8.38397C7.8278 6.54517 9.41459 5.06437 11.3223 4.12957C13.2301 3.19477 15.3727 2.84817 17.4779 3.13397L30.1208 5.06247L45.9779 -3.93753ZM43.5136 46.9554C43.5136 51.1936 44.7704 55.3366 47.125 58.8605C49.4796 62.3844 52.8263 65.1309 56.7418 66.7528C60.6574 68.3747 64.966 68.799 69.1227 67.9722C73.2794 67.1454 77.0976 65.1045 80.0945 62.1077C83.0913 59.1108 85.1322 55.2926 85.959 51.1359C86.7858 46.9792 86.3615 42.6706 84.7396 38.755C83.1177 34.8395 80.3712 31.4928 76.8473 29.1382C73.3233 26.7836 69.1804 25.5268 64.9422 25.5268C59.259 25.5268 53.8085 27.7845 49.7899 31.8031C45.7713 35.8217 43.5136 41.2722 43.5136 46.9554Z" stroke="white" stroke-width="2" stroke-linecap="round" stroke-linejoin="round"/>
</svg>
