<svg width="30" height="30" viewBox="0 0 30 30" fill="none" xmlns="http://www.w3.org/2000/svg">
<path d="M8.97812 22.3587C8.60878 22.3587 8.36257 22.2355 8.11637 21.9893C7.62389 21.4969 7.62389 20.7583 8.11637 20.2658L20.4269 7.95524C20.9193 7.46284 21.658 7.46284 22.1504 7.95524C22.6428 8.44765 22.6428 9.18627 22.1504 9.67874L9.8398 21.9893C9.59359 22.2355 9.34739 22.3587 8.97812 22.3587Z" fill="white"/>
<path d="M21.2884 21.1276C20.5498 21.1276 20.0574 20.6352 20.0574 19.8966V10.0481H10.2089C9.47025 10.0481 8.97784 9.55564 8.97784 8.81703C8.97784 8.07835 9.47025 7.58594 10.2089 7.58594H21.2884C22.0271 7.58594 22.5195 8.07835 22.5195 8.81703V19.8966C22.5195 20.6352 22.0271 21.1276 21.2884 21.1276Z" fill="white"/>
</svg>
